<svg width="1080" height="1080" viewBox="0 0 1080 1080" fill="none" xmlns="http://www.w3.org/2000/svg">
<circle cx="540" cy="540" r="523.8" fill="url(#paint0_linear_15_32)"/>
<path d="M471.871 389.543C475.173 393.446 476.824 397.499 476.824 401.702C476.824 403.503 476.674 405.454 476.374 407.556C476.374 409.357 476.224 411.008 475.923 412.509C475.023 415.811 473.072 418.963 470.069 421.965C467.668 423.767 464.366 425.117 460.163 426.018C458.061 426.618 455.96 427.069 453.858 427.369C451.757 427.669 449.506 428.12 447.104 428.72C445.002 429.02 442.901 429.17 440.8 429.17C438.698 429.17 436.447 429.17 434.045 429.17H411.079C405.676 429.47 400.272 429.621 394.868 429.621C389.765 429.621 384.662 429.621 379.558 429.621C379.858 438.927 380.008 448.984 380.008 459.791C380.008 470.298 379.858 482.606 379.558 496.716C379.558 510.826 379.408 527.187 379.108 545.799C379.108 564.412 379.108 586.027 379.108 610.643V644.867C379.108 647.869 379.258 650.12 379.558 651.621C379.558 652.822 379.558 654.023 379.558 655.224C379.558 656.124 379.408 657.325 379.108 658.826C378.507 661.528 378.057 664.68 377.757 668.282C377.757 669.783 377.607 671.284 377.307 672.785C377.006 673.986 376.556 675.337 375.956 676.838C374.755 678.039 374.154 678.94 374.154 679.54L372.803 682.242C371.302 685.244 368.451 688.096 364.248 690.798C357.643 694.1 350.288 694.85 342.183 693.049C337.079 692.449 333.177 691.098 330.475 688.996C327.773 686.295 325.822 683.593 324.621 680.891C322.82 677.589 321.769 674.437 321.469 671.435C320.568 668.733 320.118 665.881 320.118 662.879V431.422C318.317 431.422 314.564 431.422 308.86 431.422C303.156 431.422 297.002 431.422 290.398 431.422C284.093 431.122 278.089 430.821 272.385 430.521C266.682 430.221 262.779 429.921 260.677 429.621C258.876 429.32 256.024 428.87 252.122 428.27C248.519 427.669 245.517 427.069 243.116 426.468C236.811 424.667 231.858 421.815 228.255 417.913C224.953 414.01 223.302 409.657 223.302 404.854C223.302 403.053 223.302 401.251 223.302 399.45C223.302 397.649 223.602 395.998 224.203 394.497C225.103 390.894 227.505 387.892 231.408 385.491C232.608 384.59 234.41 383.539 236.811 382.338C239.513 380.837 242.065 379.787 244.466 379.186C248.069 377.985 252.572 377.085 257.976 376.484C260.377 376.184 262.779 376.034 265.18 376.034C267.582 376.034 270.134 376.034 272.836 376.034C283.343 376.034 293.25 376.034 302.556 376.034C312.162 376.034 322.219 375.884 332.726 375.584C350.138 375.284 367.4 375.284 384.511 375.584C401.923 375.584 419.185 375.884 436.297 376.484C440.199 376.785 443.952 377.235 447.554 377.835C451.157 378.436 454.759 379.487 458.362 380.988C461.063 381.888 463.615 383.089 466.017 384.59C468.418 385.791 470.37 387.442 471.871 389.543ZM690.079 528.237C698.785 533.941 706.14 540.696 712.144 548.501C718.448 556.006 723.401 565.313 727.004 576.42C730.907 588.728 732.858 601.187 732.858 613.795C733.158 626.104 730.907 637.662 726.103 648.469C721.6 658.976 714.245 668.282 704.038 676.388C694.132 684.193 681.073 689.747 664.862 693.049C656.156 695.151 645.949 696.802 634.241 698.003C622.533 699.203 612.026 699.804 602.72 699.804C591.012 700.104 578.853 700.104 566.245 699.804C553.937 699.804 541.928 698.603 530.22 696.201C525.117 694.7 521.364 692.149 518.963 688.546C516.861 684.644 515.36 680.291 514.46 675.487C513.259 672.785 512.659 670.084 512.659 667.382V411.608C512.659 403.203 514.31 396.748 517.612 392.245C521.214 387.442 525.867 383.99 531.571 381.888C537.275 379.487 543.73 378.136 550.934 377.835C558.139 377.235 565.644 376.935 573.45 376.935C579.454 376.935 585.458 376.935 591.462 376.935C597.766 376.635 604.071 376.635 610.375 376.935C620.282 377.235 630.488 378.136 640.996 379.637C651.803 380.837 662.01 383.239 671.616 386.842C676.119 388.343 680.923 390.444 686.026 393.146C691.13 395.547 695.182 398.549 698.184 402.152C707.791 410.858 714.846 421.065 719.349 432.773C724.152 444.18 726.253 455.888 725.653 467.896C725.053 479.604 721.75 490.862 715.746 501.669C710.042 512.477 701.487 521.333 690.079 528.237ZM611.275 647.568C620.582 646.968 630.038 645.917 639.645 644.416C649.251 642.915 655.856 640.063 659.458 635.86C663.361 631.057 666.063 625.503 667.564 619.199C669.365 612.595 669.815 605.99 668.915 599.386C668.314 592.481 666.363 586.027 663.061 580.023C660.059 573.718 656.006 568.765 650.902 565.162C643.998 559.759 636.042 556.306 627.036 554.805C618.03 553.004 609.174 552.104 600.468 552.104C596.265 552.104 592.363 552.254 588.76 552.554C585.458 552.554 582.456 553.004 579.754 553.905C577.352 554.505 575.551 555.856 574.35 557.958C573.15 560.059 572.549 563.211 572.549 567.414C573.15 575.219 573.15 583.025 572.549 590.83C571.949 598.635 571.649 606.14 571.649 613.345C571.649 617.548 571.498 622.201 571.198 627.305C571.198 632.108 572.849 636.161 576.152 639.463C579.454 642.765 584.257 645.017 590.561 646.217C596.866 647.418 603.77 647.869 611.275 647.568ZM620.282 431.422C610.975 431.122 603.17 430.971 596.866 430.971C590.862 430.671 586.058 431.122 582.456 432.322C579.154 433.223 576.752 435.474 575.251 439.077C574.05 442.379 573.6 447.483 573.9 454.387C573.9 460.091 573.75 465.795 573.45 471.499C573.45 476.903 573.45 482.306 573.45 487.71C573.45 493.714 575.401 498.217 579.304 501.219C583.206 503.921 588.01 505.572 593.714 506.172C599.718 506.773 605.872 506.773 612.176 506.172C618.781 505.572 624.484 504.822 629.288 503.921C640.095 502.12 648.351 498.517 654.054 493.114C660.059 487.41 663.511 479.154 664.411 468.347C665.612 454.838 662.01 445.531 653.604 440.428C645.499 435.024 634.391 432.022 620.282 431.422ZM783.581 362.525C785.982 358.622 789.284 355.77 793.487 353.969C797.69 352.168 801.743 351.267 805.646 351.267C808.948 351.267 812.1 351.417 815.102 351.718C818.404 351.718 821.556 352.018 824.558 352.618C830.863 354.42 835.366 358.472 838.068 364.777C840.769 370.781 842.421 377.835 843.021 385.941C843.922 393.746 844.072 401.551 843.471 409.357C843.171 417.162 843.021 423.466 843.021 428.27V561.11C843.021 567.114 843.021 573.118 843.021 579.122C843.021 585.126 841.97 590.83 839.869 596.234C837.767 601.337 833.865 605.09 828.161 607.491C822.457 609.893 816.453 611.094 810.149 611.094C803.844 610.793 797.84 609.443 792.136 607.041C786.433 604.339 782.53 600.587 780.428 595.783C779.528 593.081 778.777 589.779 778.177 585.877C777.877 581.674 777.577 577.921 777.276 574.619C776.976 569.515 776.826 564.262 776.826 558.858C777.126 553.154 777.276 547.45 777.276 541.747V390.894C777.276 387.292 777.727 382.639 778.627 376.935C779.528 371.231 781.179 366.428 783.581 362.525ZM835.366 652.071C836.266 653.572 837.017 655.073 837.617 656.574C838.518 657.775 839.268 659.276 839.869 661.078C840.769 664.38 841.37 667.832 841.67 671.435C841.97 675.037 841.67 678.639 840.769 682.242C839.869 685.544 838.368 688.696 836.266 691.698C834.165 694.7 831.313 696.952 827.711 698.453C824.408 699.954 820.506 700.855 816.003 701.155C811.5 701.455 807.147 701.155 802.944 700.254C798.741 699.354 794.838 697.702 791.236 695.301C787.633 692.899 785.082 689.747 783.581 685.844C782.08 681.641 781.179 676.838 780.879 671.435C780.879 665.731 781.629 660.777 783.13 656.574C784.932 652.071 787.783 649.069 791.686 647.568C795.589 645.767 799.792 644.867 804.295 644.867C809.999 644.566 815.552 644.716 820.956 645.317C826.66 645.917 831.463 648.169 835.366 652.071Z" fill="#FF2E5A"/>
<path d="M471.871 373.343C475.173 377.246 476.824 381.299 476.824 385.502C476.824 387.303 476.674 389.254 476.374 391.356C476.374 393.157 476.224 394.808 475.923 396.309C475.023 399.611 473.072 402.763 470.069 405.765C467.668 407.567 464.366 408.918 460.163 409.818C458.061 410.419 455.96 410.869 453.858 411.169C451.757 411.469 449.506 411.92 447.104 412.52C445.002 412.82 442.901 412.97 440.8 412.97C438.698 412.97 436.447 412.97 434.045 412.97H411.079C405.676 413.27 400.272 413.421 394.868 413.421C389.765 413.421 384.662 413.421 379.558 413.421C379.858 422.727 380.008 432.784 380.008 443.591C380.008 454.098 379.858 466.407 379.558 480.516C379.558 494.626 379.408 510.987 379.108 529.599C379.108 548.212 379.108 569.827 379.108 594.443V628.667C379.108 631.669 379.258 633.92 379.558 635.421C379.558 636.622 379.558 637.823 379.558 639.024C379.558 639.924 379.408 641.125 379.108 642.626C378.507 645.328 378.057 648.48 377.757 652.082C377.757 653.583 377.607 655.085 377.307 656.586C377.006 657.786 376.556 659.137 375.956 660.638C374.755 661.839 374.154 662.74 374.154 663.34L372.803 666.042C371.302 669.044 368.451 671.896 364.248 674.598C357.643 677.9 350.288 678.651 342.183 676.849C337.079 676.249 333.177 674.898 330.475 672.797C327.773 670.095 325.822 667.393 324.621 664.691C322.82 661.389 321.769 658.237 321.469 655.235C320.568 652.533 320.118 649.681 320.118 646.679V415.222C318.317 415.222 314.564 415.222 308.86 415.222C303.156 415.222 297.002 415.222 290.398 415.222C284.093 414.922 278.089 414.621 272.385 414.321C266.682 414.021 262.779 413.721 260.677 413.421C258.876 413.12 256.024 412.67 252.122 412.07C248.519 411.469 245.517 410.869 243.116 410.268C236.811 408.467 231.858 405.615 228.255 401.713C224.953 397.81 223.302 393.457 223.302 388.654C223.302 386.853 223.302 385.051 223.302 383.25C223.302 381.449 223.602 379.798 224.203 378.297C225.103 374.694 227.505 371.692 231.408 369.291C232.608 368.39 234.41 367.339 236.811 366.139C239.513 364.637 242.065 363.587 244.466 362.986C248.069 361.786 252.572 360.885 257.976 360.285C260.377 359.984 262.779 359.834 265.18 359.834C267.582 359.834 270.134 359.834 272.836 359.834C283.343 359.834 293.25 359.834 302.556 359.834C312.162 359.834 322.219 359.684 332.726 359.384C350.138 359.084 367.4 359.084 384.511 359.384C401.923 359.384 419.185 359.684 436.297 360.285C440.199 360.585 443.952 361.035 447.554 361.635C451.157 362.236 454.759 363.287 458.362 364.788C461.063 365.688 463.615 366.889 466.017 368.39C468.418 369.591 470.37 371.242 471.871 373.343ZM690.079 512.037C698.785 517.741 706.14 524.496 712.144 532.301C718.448 539.806 723.401 549.113 727.004 560.22C730.907 572.529 732.858 584.987 732.858 597.596C733.158 609.904 730.907 621.462 726.103 632.269C721.6 642.776 714.245 652.082 704.038 660.188C694.132 667.993 681.073 673.547 664.862 676.849C656.156 678.951 645.949 680.602 634.241 681.803C622.533 683.003 612.026 683.604 602.72 683.604C591.012 683.904 578.853 683.904 566.245 683.604C553.937 683.604 541.928 682.403 530.22 680.001C525.117 678.5 521.364 675.949 518.963 672.346C516.861 668.444 515.36 664.091 514.46 659.287C513.259 656.586 512.659 653.884 512.659 651.182V395.408C512.659 387.003 514.31 380.548 517.612 376.045C521.214 371.242 525.867 367.79 531.571 365.688C537.275 363.287 543.73 361.936 550.934 361.635C558.139 361.035 565.644 360.735 573.45 360.735C579.454 360.735 585.458 360.735 591.462 360.735C597.766 360.435 604.071 360.435 610.375 360.735C620.282 361.035 630.488 361.936 640.996 363.437C651.803 364.637 662.01 367.039 671.616 370.642C676.119 372.143 680.923 374.244 686.026 376.946C691.13 379.347 695.182 382.35 698.184 385.952C707.791 394.658 714.846 404.865 719.349 416.573C724.152 427.98 726.253 439.688 725.653 451.697C725.053 463.404 721.75 474.662 715.746 485.469C710.042 496.277 701.487 505.133 690.079 512.037ZM611.275 631.368C620.582 630.768 630.038 629.717 639.645 628.216C649.251 626.715 655.856 623.863 659.458 619.66C663.361 614.857 666.063 609.303 667.564 602.999C669.365 596.395 669.815 589.79 668.915 583.186C668.314 576.281 666.363 569.827 663.061 563.823C660.059 557.518 656.006 552.565 650.902 548.963C643.998 543.559 636.042 540.107 627.036 538.606C618.03 536.804 609.174 535.904 600.468 535.904C596.265 535.904 592.363 536.054 588.76 536.354C585.458 536.354 582.456 536.804 579.754 537.705C577.352 538.305 575.551 539.656 574.35 541.758C573.15 543.859 572.549 547.011 572.549 551.214C573.15 559.019 573.15 566.825 572.549 574.63C571.949 582.435 571.649 589.94 571.649 597.145C571.649 601.348 571.498 606.001 571.198 611.105C571.198 615.908 572.849 619.961 576.152 623.263C579.454 626.565 584.257 628.817 590.561 630.018C596.866 631.218 603.77 631.669 611.275 631.368ZM620.282 415.222C610.975 414.922 603.17 414.771 596.866 414.771C590.862 414.471 586.058 414.922 582.456 416.122C579.154 417.023 576.752 419.275 575.251 422.877C574.05 426.179 573.6 431.283 573.9 438.187C573.9 443.891 573.75 449.595 573.45 455.299C573.45 460.703 573.45 466.106 573.45 471.51C573.45 477.514 575.401 482.017 579.304 485.019C583.206 487.721 588.01 489.372 593.714 489.973C599.718 490.573 605.872 490.573 612.176 489.973C618.781 489.372 624.484 488.622 629.288 487.721C640.095 485.92 648.351 482.317 654.054 476.914C660.059 471.21 663.511 462.954 664.411 452.147C665.612 438.638 662.01 429.331 653.604 424.228C645.499 418.824 634.391 415.822 620.282 415.222ZM783.581 346.325C785.982 342.422 789.284 339.57 793.487 337.769C797.69 335.968 801.743 335.067 805.646 335.067C808.948 335.067 812.1 335.218 815.102 335.518C818.404 335.518 821.556 335.818 824.558 336.418C830.863 338.22 835.366 342.272 838.068 348.577C840.769 354.581 842.421 361.635 843.021 369.741C843.922 377.546 844.072 385.352 843.471 393.157C843.171 400.962 843.021 407.266 843.021 412.07V544.91C843.021 550.914 843.021 556.918 843.021 562.922C843.021 568.926 841.97 574.63 839.869 580.034C837.767 585.137 833.865 588.89 828.161 591.291C822.457 593.693 816.453 594.894 810.149 594.894C803.844 594.593 797.84 593.243 792.136 590.841C786.433 588.139 782.53 584.387 780.428 579.583C779.528 576.881 778.777 573.579 778.177 569.677C777.877 565.474 777.577 561.721 777.276 558.419C776.976 553.315 776.826 548.062 776.826 542.658C777.126 536.954 777.276 531.251 777.276 525.547V374.694C777.276 371.092 777.727 366.439 778.627 360.735C779.528 355.031 781.179 350.228 783.581 346.325ZM835.366 635.871C836.266 637.373 837.017 638.874 837.617 640.375C838.518 641.575 839.268 643.076 839.869 644.878C840.769 648.18 841.37 651.632 841.67 655.235C841.97 658.837 841.67 662.44 840.769 666.042C839.869 669.344 838.368 672.496 836.266 675.498C834.165 678.5 831.313 680.752 827.711 682.253C824.408 683.754 820.506 684.655 816.003 684.955C811.5 685.255 807.147 684.955 802.944 684.054C798.741 683.154 794.838 681.502 791.236 679.101C787.633 676.699 785.082 673.547 783.581 669.644C782.08 665.442 781.179 660.638 780.879 655.235C780.879 649.531 781.629 644.577 783.13 640.375C784.932 635.871 787.783 632.869 791.686 631.368C795.589 629.567 799.792 628.667 804.295 628.667C809.999 628.366 815.552 628.516 820.956 629.117C826.66 629.717 831.463 631.969 835.366 635.871Z" fill="white"/>
<defs>
<linearGradient id="paint0_linear_15_32" x1="540" y1="16.2002" x2="540" y2="1063.8" gradientUnits="userSpaceOnUse">
<stop stop-color="#FE2C55"/>
<stop offset="1" stop-color="#FF439D"/>
</linearGradient>
</defs>
</svg>
